<svg version="1" xmlns="http://www.w3.org/2000/svg" width="346.667" height="346.667" viewBox="0 0 260.000000 260.000000"><path d="M108.8 46.8l-4.8.3v82.5c0 45.3.3 82.4.8 82.5 4 .4 78.6 0 84.4-.5 30.4-2.6 48.6-21.5 46.5-48.1-1.3-16-8.9-27.4-22.3-33.7l-6.5-3 4.3-2.3c9.5-5.1 15.3-11.9 18.8-22 2.2-6.5 2-20.8-.3-27.3-6-16.2-21.8-26.2-44.2-27.8-7.9-.6-69.4-1.1-76.7-.6zm80.4 26.1c10.1 3.9 14.5 11.3 13.5 22.8-.7 8.6-4 13.6-11.2 16.9-7.2 3.3-11.3 3.8-36.5 3.8l-21.5.1v-22c0-12.1.1-22.5.3-23.1.2-.9 7.2-1.1 25-1 22.8.3 25.1.5 30.4 2.5zm4.4 69.9c9.5 4.3 13.6 11 13.5 22-.1 11.1-5.5 19.2-14.6 21.7-1.6.4-3.7 1-4.5 1.3-.8.2-13.3.6-27.7.8-20.3.3-26.3.1-26.4-.9-.3-4.1-.4-46.4-.1-47 .2-.5 12.6-.7 27.6-.5 25.7.3 27.4.5 32.2 2.6zM67 49.2c-.5 1.3-3.4 12.2-6.5 24.3-3.1 12.1-6.9 26.7-8.5 32.5-3.1 11.3-14.8 56.2-22.9 87.8l-5 19.3 14.8-.3 14.8-.2 6.6-25.1c6.6-24.8 18.8-71 24.8-94 1.7-6.6 4-15.1 5.1-19 1.1-3.8 2.2-7.8 2.4-9 .2-1.1 1.3-5.1 2.4-9 1.1-3.8 2-7.6 2-8.2 0-1-3.6-1.3-14.5-1.3-14.1 0-14.6.1-15.5 2.2z"/></svg>