<svg version="1" xmlns="http://www.w3.org/2000/svg" width="346.667" height="346.667" viewBox="0 0 260.000000 260.000000"><path d="M136 110v61.7l7.8-.1c8.5-.1 7.8.6 8.1-8.1l.2-4 1.4 2.6c1.6 3 9.2 8.1 14.5 9.8 13.6 4.2 29.9.1 40.3-10.3 7.3-7.3 10.9-15.6 11.5-26.7.8-17.5-4.8-29.7-17.8-38.5-13.6-9.3-36.9-7.9-46.8 2.7-2.1 2.2-3.2 2.9-3.3 1.9 0-.8-.1-13-.1-27.1l-.1-25.6h-7.8l-7.9-.1V110zm53.6-1.9c2.3 1 5.5 3.4 7.2 5.4 5.4 6.1 6.6 9.3 6.7 18 0 7-.4 8.7-2.9 13.2-2.6 4.8-8.4 10-13.1 11.7-11.8 4.4-27.4-1.4-32.6-12.2-4.6-9.4-3.1-23.1 3.4-30 7.7-8.3 20.9-10.8 31.3-6.1zM67.8 92c-10.8 3.3-21 12.8-24.9 22.9-3 7.8-3.7 21.8-1.4 29.7 6.8 23.9 33.6 35.7 56.1 24.7 3.1-1.5 6.6-4 7.7-5.5 1.2-1.6 2.4-2.8 2.8-2.8 1.1 0-.2 11.1-2 17.1-3.6 11.4-11.5 17.6-23.4 18.4-9.8.6-20.4-4.6-24.4-11.9-1-1.8-1.4-1.7-7.7 1.8-4.3 2.4-6.4 4.1-5.9 4.9 7 11.9 19.8 19.5 33.9 20.2 17.8.8 32.1-6.3 38.7-19 5.9-11.5 6-12.6 6.4-58.3.3-23.2.1-42.2-.4-42.3-5.2-.6-14.3-.2-14.4.6-.1.5-.3 2.8-.4 5-.1 2.2-.3 4.3-.4 4.6 0 .3-2-1.3-4.4-3.6-8.2-7.8-23-10.5-35.9-6.5zM89 106.5c11.9 2.2 19.9 14 19.1 28-1 15.5-18 26.9-33.8 22.6-17.3-4.7-24-28.1-12.2-42.4 6.2-7.6 15.3-10.3 26.9-8.2z"/></svg>